<?xml version="1.0" encoding="utf-8"?>
<Project name="video_demo" themeId="1" version="65538" templateID="SimpleProjectTemplate">
  <MediaItems>
    <MediaItem id="1" filePath="C:\Users\Marc\Desktop\Videos_soutenance\Raw_files\Video_ensemble_vues.avi" arWidth="1128" arHeight="648" duration="15.6" songTitle="" songArtist="" songAlbum="" />
    <MediaItem id="2" filePath="C:\Users\Marc\Downloads\Polytech_Tours_logo.gif" arWidth="227" arHeight="77" duration="0" songTitle="" songArtist="" songAlbum="" />
    <MediaItem id="3" filePath="C:\Users\Marc\Desktop\Videos_soutenance\Raw_files\video_tube.avi" arWidth="1128" arHeight="612" duration="8.0999999999999996" songTitle="" songArtist="" songAlbum="" />
    <MediaItem id="4" filePath="C:\Users\Marc\Desktop\Videos_soutenance\Raw_files\video_coupe_tube.avi" arWidth="1128" arHeight="612" duration="10.5" songTitle="" songArtist="" songAlbum="" />
    <MediaItem id="5" filePath="C:\Users\Marc\Desktop\Videos_soutenance\Raw_files\video_coupe_chambre.avi" arWidth="1132" arHeight="612" duration="9.8000000000000007" songTitle="" songArtist="" songAlbum="" />
    <MediaItem id="6" filePath="C:\Users\Marc\Desktop\Videos_soutenance\Raw_files\video_eau_dessus.avi" arWidth="1128" arHeight="648" duration="12.4" songTitle="" songArtist="" songAlbum="" />
    <MediaItem id="7" filePath="C:\Users\Marc\Desktop\Videos_soutenance\Raw_files\video_eau_profil.avi" arWidth="1128" arHeight="648" duration="13.1" songTitle="" songArtist="" songAlbum="" />
    <MediaItem id="10" filePath="C:\Users\Marc\Desktop\Videos_soutenance\admission1.jpg" arWidth="458" arHeight="258" duration="0" songTitle="" songArtist="" songAlbum="" />
    <MediaItem id="11" filePath="C:\Users\Marc\Desktop\Videos_soutenance\echappement1.jpg" arWidth="458" arHeight="258" duration="0" songTitle="" songArtist="" songAlbum="" />
  </MediaItems>
  <Extents>
    <VideoClip extentID="34" gapBefore="0" mediaItemID="6" inTime="0" outTime="0" speed="0.80000000000000004">
      <Effects />
      <Transitions>
        <ShapeEffect effectTemplateID="SlideDownTogetherTransitionTemplate" duration="1.5">
          <BoundProperties />
        </ShapeEffect>
      </Transitions>
      <BoundProperties>
        <BoundPropertyBool Name="Mute" Value="false" />
        <BoundPropertyInt Name="rotateStepNinety" Value="0" />
        <BoundPropertyFloat Name="Volume" Value="1" />
      </BoundProperties>
    </VideoClip>
    <ImageClip extentID="51" gapBefore="0" mediaItemID="2" duration="7">
      <Effects>
        <ShaderEffect effectTemplateID="BlackAndWhiteEffectTemplate">
          <BoundProperties />
        </ShaderEffect>
        <ShaderEffect effectTemplateID="FadeInFromBlackEffectTemplate">
          <BoundProperties />
        </ShaderEffect>
      </Effects>
      <Transitions />
      <BoundProperties>
        <BoundPropertyInt Name="rotateStepNinety" Value="0" />
      </BoundProperties>
    </ImageClip>
    <VideoClip extentID="35" gapBefore="0" mediaItemID="7" inTime="0" outTime="0" speed="1">
      <Effects />
      <Transitions>
        <ShapeEffect effectTemplateID="SlideDownGapTransitionTemplate" duration="1.5">
          <BoundProperties />
        </ShapeEffect>
      </Transitions>
      <BoundProperties>
        <BoundPropertyBool Name="Mute" Value="false" />
        <BoundPropertyInt Name="rotateStepNinety" Value="0" />
        <BoundPropertyFloat Name="Volume" Value="1" />
      </BoundProperties>
    </VideoClip>
    <ImageClip extentID="52" gapBefore="0" mediaItemID="2" duration="7">
      <Effects>
        <PanAndZoomShapeEffect effectTemplateID="PanAndZoomEffectPanBottomToTopAlongMiddleTemplate">
          <BoundProperties>
            <BoundPropertyInt Name="effectType" Value="4" />
          </BoundProperties>
        </PanAndZoomShapeEffect>
      </Effects>
      <Transitions>
        <ShapeEffect effectTemplateID="SlideDownGapTransitionTemplate" duration="1.5">
          <BoundProperties />
        </ShapeEffect>
      </Transitions>
      <BoundProperties>
        <BoundPropertyInt Name="rotateStepNinety" Value="0" />
      </BoundProperties>
    </ImageClip>
    <TitleClip extentID="54" gapBefore="2.8695614999999606" duration="7">
      <Effects>
        <TextEffect effectTemplateID="TextEffectContemporaryFlyInLeft1Template" TextScriptId="22">
          <BoundProperties>
            <BoundPropertyBool Name="automatic" Value="false" />
            <BoundPropertyFloatSet Name="color">
              <BoundPropertyFloatElement Value="0.29803922772407532" />
              <BoundPropertyFloatElement Value="0.29803922772407532" />
              <BoundPropertyFloatElement Value="0.29803922772407532" />
            </BoundPropertyFloatSet>
            <BoundPropertyStringSet Name="family">
              <BoundPropertyStringElement Value="Segoe UI" />
            </BoundPropertyStringSet>
            <BoundPropertyBool Name="horizontal" Value="true" />
            <BoundPropertyStringSet Name="justify">
              <BoundPropertyStringElement Value="BEGIN" />
            </BoundPropertyStringSet>
            <BoundPropertyFloatSet Name="length" />
            <BoundPropertyFloat Name="maxExtent" Value="0" />
            <BoundPropertyFloatSet Name="position">
              <BoundPropertyFloatElement Value="-2.4454147815704346" />
              <BoundPropertyFloatElement Value="1" />
              <BoundPropertyFloatElement Value="0.02500000037252903" />
            </BoundPropertyFloatSet>
            <BoundPropertyFloat Name="size" Value="0.3333333432674408" />
            <BoundPropertyStringSet Name="string">
              <BoundPropertyStringElement Value="Marc ROSSER" />
              <BoundPropertyStringElement Value="" />
              <BoundPropertyStringElement Value="Salim ZIDANE" />
            </BoundPropertyStringSet>
            <BoundPropertyString Name="style" Value="Plain" />
            <BoundPropertyFloat Name="transparency" Value="0" />
          </BoundProperties>
        </TextEffect>
      </Effects>
      <Transitions />
      <BoundProperties>
        <BoundPropertyFloatSet Name="diffuseColor">
          <BoundPropertyFloatElement Value="0.75" />
          <BoundPropertyFloatElement Value="1" />
          <BoundPropertyFloatElement Value="0" />
        </BoundPropertyFloatSet>
        <BoundPropertyFloat Name="transparency" Value="1" />
      </BoundProperties>
    </TitleClip>
    <VideoClip extentID="5" gapBefore="0" mediaItemID="1" inTime="0" outTime="0" speed="0.80000000000000004">
      <Effects />
      <Transitions>
        <ShaderEffect effectTemplateID="WipeNormalDownTransitionTemplate" duration="2">
          <BoundProperties />
        </ShaderEffect>
      </Transitions>
      <BoundProperties>
        <BoundPropertyBool Name="Mute" Value="false" />
        <BoundPropertyInt Name="rotateStepNinety" Value="0" />
        <BoundPropertyFloat Name="Volume" Value="1" />
      </BoundProperties>
    </VideoClip>
    <TitleClip extentID="22" gapBefore="0" duration="7">
      <Effects>
        <TextEffect effectTemplateID="TextEffectContemporaryFade2Template" TextScriptId="20">
          <BoundProperties>
            <BoundPropertyBool Name="automatic" Value="false" />
            <BoundPropertyFloatSet Name="color">
              <BoundPropertyFloatElement Value="0" />
              <BoundPropertyFloatElement Value="0.30196079611778259" />
              <BoundPropertyFloatElement Value="0.73333334922790527" />
            </BoundPropertyFloatSet>
            <BoundPropertyStringSet Name="family">
              <BoundPropertyStringElement Value="Segoe UI" />
            </BoundPropertyStringSet>
            <BoundPropertyBool Name="horizontal" Value="true" />
            <BoundPropertyStringSet Name="justify">
              <BoundPropertyStringElement Value="MIDDLE" />
            </BoundPropertyStringSet>
            <BoundPropertyFloatSet Name="length" />
            <BoundPropertyFloat Name="maxExtent" Value="0" />
            <BoundPropertyFloatSet Name="position">
              <BoundPropertyFloatElement Value="0" />
              <BoundPropertyFloatElement Value="-1" />
              <BoundPropertyFloatElement Value="0.02500000037252903" />
            </BoundPropertyFloatSet>
            <BoundPropertyFloat Name="size" Value="0.43333333730697632" />
            <BoundPropertyStringSet Name="string">
              <BoundPropertyStringElement Value="Projet 3A 2012-2013: " />
              <BoundPropertyStringElement Value="Le Moteur Ã  admission et echappement " />
              <BoundPropertyStringElement Value="rotatifs" />
            </BoundPropertyStringSet>
            <BoundPropertyString Name="style" Value="Plain" />
            <BoundPropertyFloat Name="transparency" Value="0" />
          </BoundProperties>
        </TextEffect>
      </Effects>
      <Transitions />
      <BoundProperties>
        <BoundPropertyFloatSet Name="diffuseColor">
          <BoundPropertyFloatElement Value="0.75" />
          <BoundPropertyFloatElement Value="1" />
          <BoundPropertyFloatElement Value="0" />
        </BoundPropertyFloatSet>
        <BoundPropertyFloat Name="transparency" Value="1" />
      </BoundProperties>
    </TitleClip>
    <ImageClip extentID="6" gapBefore="0" mediaItemID="2" duration="3">
      <Effects />
      <Transitions>
        <ShaderEffect effectTemplateID="WipeNormalDownTransitionTemplate" duration="2">
          <BoundProperties />
        </ShaderEffect>
      </Transitions>
      <BoundProperties>
        <BoundPropertyInt Name="rotateStepNinety" Value="0" />
      </BoundProperties>
    </ImageClip>
    <VideoClip extentID="41" gapBefore="0" mediaItemID="5" inTime="4.9291628782526971" outTime="7.69008177566527" speed="1">
      <Effects />
      <Transitions />
      <BoundProperties>
        <BoundPropertyBool Name="Mute" Value="false" />
        <BoundPropertyInt Name="rotateStepNinety" Value="0" />
        <BoundPropertyFloat Name="Volume" Value="1" />
      </BoundProperties>
    </VideoClip>
    <ImageClip extentID="10" gapBefore="0" mediaItemID="10" duration="7">
      <Effects>
        <PanAndZoomShapeEffect effectTemplateID="PanAndZoomEffectPanRightToLeftAlongTopTemplate">
          <BoundProperties>
            <BoundPropertyInt Name="effectType" Value="2" />
          </BoundProperties>
        </PanAndZoomShapeEffect>
      </Effects>
      <Transitions>
        <ShapeEffect effectTemplateID="ContemporarySlideDownNarrow2TransitionTemplate" duration="1.5">
          <BoundProperties />
        </ShapeEffect>
      </Transitions>
      <BoundProperties>
        <BoundPropertyInt Name="rotateStepNinety" Value="0" />
      </BoundProperties>
    </ImageClip>
    <TitleClip extentID="44" gapBefore="6.2269701476386246" duration="20">
      <Effects>
        <TextEffect effectTemplateID="TextEffectContemporaryFade2Template" TextScriptId="20">
          <BoundProperties>
            <BoundPropertyBool Name="automatic" Value="false" />
            <BoundPropertyFloatSet Name="color">
              <BoundPropertyFloatElement Value="1" />
              <BoundPropertyFloatElement Value="1" />
              <BoundPropertyFloatElement Value="1" />
            </BoundPropertyFloatSet>
            <BoundPropertyStringSet Name="family">
              <BoundPropertyStringElement Value="Segoe UI" />
            </BoundPropertyStringSet>
            <BoundPropertyBool Name="horizontal" Value="true" />
            <BoundPropertyStringSet Name="justify">
              <BoundPropertyStringElement Value="MIDDLE" />
            </BoundPropertyStringSet>
            <BoundPropertyFloatSet Name="length" />
            <BoundPropertyFloat Name="maxExtent" Value="0" />
            <BoundPropertyFloatSet Name="position">
              <BoundPropertyFloatElement Value="0" />
              <BoundPropertyFloatElement Value="-2" />
              <BoundPropertyFloatElement Value="0.02500000037252903" />
            </BoundPropertyFloatSet>
            <BoundPropertyFloat Name="size" Value="0.3333333432674408" />
            <BoundPropertyStringSet Name="string">
              <BoundPropertyStringElement Value="Circuit de refroidissement liquide interne" />
            </BoundPropertyStringSet>
            <BoundPropertyString Name="style" Value="Plain" />
            <BoundPropertyFloat Name="transparency" Value="0" />
          </BoundProperties>
        </TextEffect>
      </Effects>
      <Transitions />
      <BoundProperties>
        <BoundPropertyFloatSet Name="diffuseColor">
          <BoundPropertyFloatElement Value="0.75" />
          <BoundPropertyFloatElement Value="1" />
          <BoundPropertyFloatElement Value="0" />
        </BoundPropertyFloatSet>
        <BoundPropertyFloat Name="transparency" Value="1" />
      </BoundProperties>
    </TitleClip>
    <VideoClip extentID="28" gapBefore="0" mediaItemID="3" inTime="0" outTime="0" speed="1">
      <Effects />
      <Transitions>
        <ShapeEffect effectTemplateID="ContemporarySlideDownWide2TransitionTemplate" duration="1.5">
          <BoundProperties />
        </ShapeEffect>
      </Transitions>
      <BoundProperties>
        <BoundPropertyBool Name="Mute" Value="false" />
        <BoundPropertyInt Name="rotateStepNinety" Value="0" />
        <BoundPropertyFloat Name="Volume" Value="1" />
      </BoundProperties>
    </VideoClip>
    <TitleClip extentID="12" gapBefore="40.213918798275046" duration="3.5966530999999975">
      <Effects>
        <TextEffect effectTemplateID="TextEffectContemporaryDropDown2Template" TextScriptId="18">
          <BoundProperties>
            <BoundPropertyBool Name="automatic" Value="false" />
            <BoundPropertyFloatSet Name="color">
              <BoundPropertyFloatElement Value="1" />
              <BoundPropertyFloatElement Value="1" />
              <BoundPropertyFloatElement Value="1" />
            </BoundPropertyFloatSet>
            <BoundPropertyStringSet Name="family">
              <BoundPropertyStringElement Value="Segoe UI" />
            </BoundPropertyStringSet>
            <BoundPropertyBool Name="horizontal" Value="true" />
            <BoundPropertyStringSet Name="justify">
              <BoundPropertyStringElement Value="MIDDLE" />
            </BoundPropertyStringSet>
            <BoundPropertyFloatSet Name="length" />
            <BoundPropertyFloat Name="maxExtent" Value="0" />
            <BoundPropertyFloatSet Name="position">
              <BoundPropertyFloatElement Value="0" />
              <BoundPropertyFloatElement Value="-2" />
              <BoundPropertyFloatElement Value="0.02500000037252903" />
            </BoundPropertyFloatSet>
            <BoundPropertyFloat Name="size" Value="0.3333333432674408" />
            <BoundPropertyStringSet Name="string">
              <BoundPropertyStringElement Value="Admission" />
            </BoundPropertyStringSet>
            <BoundPropertyString Name="style" Value="Plain" />
            <BoundPropertyFloat Name="transparency" Value="0" />
          </BoundProperties>
        </TextEffect>
      </Effects>
      <Transitions />
      <BoundProperties>
        <BoundPropertyFloatSet Name="diffuseColor">
          <BoundPropertyFloatElement Value="0.75" />
          <BoundPropertyFloatElement Value="1" />
          <BoundPropertyFloatElement Value="0" />
        </BoundPropertyFloatSet>
        <BoundPropertyFloat Name="transparency" Value="1" />
      </BoundProperties>
    </TitleClip>
    <VideoClip extentID="29" gapBefore="0" mediaItemID="4" inTime="0" outTime="0" speed="1">
      <Effects />
      <Transitions>
        <ShaderEffect effectTemplateID="WipeNormalDownTransitionTemplate" duration="1.5">
          <BoundProperties />
        </ShaderEffect>
      </Transitions>
      <BoundProperties>
        <BoundPropertyBool Name="Mute" Value="false" />
        <BoundPropertyInt Name="rotateStepNinety" Value="0" />
        <BoundPropertyFloat Name="Volume" Value="1" />
      </BoundProperties>
    </VideoClip>
    <ImageClip extentID="13" gapBefore="0" mediaItemID="11" duration="7">
      <Effects>
        <PanAndZoomShapeEffect effectTemplateID="PanAndZoomEffectPanBottomToTopAlongMiddleTemplate">
          <BoundProperties>
            <BoundPropertyInt Name="effectType" Value="4" />
          </BoundProperties>
        </PanAndZoomShapeEffect>
      </Effects>
      <Transitions>
        <ShapeEffect effectTemplateID="CrossfadeTransitionTemplate" duration="1.5">
          <BoundProperties />
        </ShapeEffect>
      </Transitions>
      <BoundProperties>
        <BoundPropertyInt Name="rotateStepNinety" Value="0" />
      </BoundProperties>
    </ImageClip>
    <VideoClip extentID="30" gapBefore="0" mediaItemID="5" inTime="0" outTime="3.4099592999999899" speed="1">
      <Effects />
      <Transitions>
        <ShapeEffect effectTemplateID="ContemporarySlideDownNarrow1TransitionTemplate" duration="1.5">
          <BoundProperties />
        </ShapeEffect>
      </Transitions>
      <BoundProperties>
        <BoundPropertyBool Name="Mute" Value="false" />
        <BoundPropertyInt Name="rotateStepNinety" Value="0" />
        <BoundPropertyFloat Name="Volume" Value="1" />
      </BoundProperties>
    </VideoClip>
    <TitleClip extentID="14" gapBefore="5.1051322039585614" duration="1.7833635484029671">
      <Effects>
        <TextEffect effectTemplateID="TextEffectContemporaryFade2Template" TextScriptId="20">
          <BoundProperties>
            <BoundPropertyBool Name="automatic" Value="false" />
            <BoundPropertyFloatSet Name="color">
              <BoundPropertyFloatElement Value="1" />
              <BoundPropertyFloatElement Value="1" />
              <BoundPropertyFloatElement Value="1" />
            </BoundPropertyFloatSet>
            <BoundPropertyStringSet Name="family">
              <BoundPropertyStringElement Value="Segoe UI" />
            </BoundPropertyStringSet>
            <BoundPropertyBool Name="horizontal" Value="true" />
            <BoundPropertyStringSet Name="justify">
              <BoundPropertyStringElement Value="MIDDLE" />
            </BoundPropertyStringSet>
            <BoundPropertyFloatSet Name="length" />
            <BoundPropertyFloat Name="maxExtent" Value="0" />
            <BoundPropertyFloatSet Name="position">
              <BoundPropertyFloatElement Value="0" />
              <BoundPropertyFloatElement Value="-2" />
              <BoundPropertyFloatElement Value="0.02500000037252903" />
            </BoundPropertyFloatSet>
            <BoundPropertyFloat Name="size" Value="0.3333333432674408" />
            <BoundPropertyStringSet Name="string">
              <BoundPropertyStringElement Value="Echappement" />
            </BoundPropertyStringSet>
            <BoundPropertyString Name="style" Value="Plain" />
            <BoundPropertyFloat Name="transparency" Value="0" />
          </BoundProperties>
        </TextEffect>
      </Effects>
      <Transitions />
      <BoundProperties>
        <BoundPropertyFloatSet Name="diffuseColor">
          <BoundPropertyFloatElement Value="0.75" />
          <BoundPropertyFloatElement Value="1" />
          <BoundPropertyFloatElement Value="0" />
        </BoundPropertyFloatSet>
        <BoundPropertyFloat Name="transparency" Value="1" />
      </BoundProperties>
    </TitleClip>
    <VideoClip extentID="31" gapBefore="0" mediaItemID="5" inTime="2.0691248025872255" outTime="3.4394800025873025" speed="0.59999999999999998">
      <Effects />
      <Transitions>
        <ShaderEffect effectTemplateID="WipeNormalDownTransitionTemplate" duration="0.050000000000000003">
          <BoundProperties />
        </ShaderEffect>
      </Transitions>
      <BoundProperties>
        <BoundPropertyBool Name="Mute" Value="false" />
        <BoundPropertyInt Name="rotateStepNinety" Value="0" />
        <BoundPropertyFloat Name="Volume" Value="1" />
      </BoundProperties>
    </VideoClip>
    <ExtentSelector extentID="1" gapBefore="0" primaryTrack="true">
      <Effects />
      <Transitions />
      <BoundProperties />
      <ExtentRefs>
        <ExtentRef id="51" />
        <ExtentRef id="6" />
        <ExtentRef id="5" />
        <ExtentRef id="28" />
        <ExtentRef id="29" />
        <ExtentRef id="30" />
        <ExtentRef id="41" />
        <ExtentRef id="10" />
        <ExtentRef id="31" />
        <ExtentRef id="13" />
        <ExtentRef id="34" />
        <ExtentRef id="35" />
        <ExtentRef id="52" />
      </ExtentRefs>
    </ExtentSelector>
    <ExtentSelector extentID="2" gapBefore="0" primaryTrack="false">
      <Effects />
      <Transitions />
      <BoundProperties />
      <ExtentRefs />
    </ExtentSelector>
    <ExtentSelector extentID="3" gapBefore="0" primaryTrack="false">
      <Effects />
      <Transitions />
      <BoundProperties />
      <ExtentRefs />
    </ExtentSelector>
    <ExtentSelector extentID="4" gapBefore="0" primaryTrack="false">
      <Effects />
      <Transitions />
      <BoundProperties />
      <ExtentRefs>
        <ExtentRef id="22" />
        <ExtentRef id="12" />
        <ExtentRef id="14" />
        <ExtentRef id="44" />
        <ExtentRef id="54" />
      </ExtentRefs>
    </ExtentSelector>
  </Extents>
  <BoundPlaceholders>
    <BoundPlaceholder placeholderID="SingleExtentView" extentID="0" />
    <BoundPlaceholder placeholderID="Main" extentID="1" />
    <BoundPlaceholder placeholderID="SoundTrack" extentID="2" />
    <BoundPlaceholder placeholderID="Text" extentID="4" />
    <BoundPlaceholder placeholderID="Narration" extentID="3" />
  </BoundPlaceholders>
  <BoundProperties>
    <BoundPropertyFloatSet Name="AspectRatio">
      <BoundPropertyFloatElement Value="1.7777776718139648" />
    </BoundPropertyFloatSet>
    <BoundPropertyFloat Name="SoundTrackMix" Value="0" />
  </BoundProperties>
  <ThemeOperationLog themeID="1">
    <MonolithicThemeOperations>
      <MTOMakeAssetBkgrdForTitleCredit NewImageExtentID="51" />
    </MonolithicThemeOperations>
  </ThemeOperationLog>
</Project>